FILE "Mahoutsukai ni Naru Houhou (Japan) (Track 01).bin" BINARY
  TRACK 01 MODE2/2352
    INDEX 01 00:00:00
  TRACK 02 AUDIO
    INDEX 00 05:30:70
    INDEX 01 05:32:70
  TRACK 03 AUDIO
    INDEX 00 08:14:12
    INDEX 01 08:16:12
  TRACK 04 AUDIO
    INDEX 00 09:44:74
    INDEX 01 09:46:74
  TRACK 05 AUDIO
    INDEX 00 13:30:34
    INDEX 01 13:32:34
  TRACK 06 AUDIO
    INDEX 00 16:06:08
    INDEX 01 16:08:08
  TRACK 07 AUDIO
    INDEX 00 17:23:74
    INDEX 01 17:25:74
  TRACK 08 AUDIO
    INDEX 00 18:57:49
    INDEX 01 18:59:49
  TRACK 09 AUDIO
    INDEX 00 20:57:20
    INDEX 01 20:59:20
  TRACK 10 AUDIO
    INDEX 00 24:00:00
    INDEX 01 24:02:00
  TRACK 11 AUDIO
    INDEX 00 26:41:03
    INDEX 01 26:43:03
  TRACK 12 AUDIO
    INDEX 00 30:07:35
    INDEX 01 30:09:35
  TRACK 13 AUDIO
    INDEX 00 30:25:45
    INDEX 01 30:27:45
  TRACK 14 AUDIO
    INDEX 00 30:45:52
    INDEX 01 30:47:52
  TRACK 15 AUDIO
    INDEX 00 31:01:57
    INDEX 01 31:03:57
  TRACK 16 AUDIO
    INDEX 00 31:24:06
    INDEX 01 31:26:06
  TRACK 17 AUDIO
    INDEX 00 31:46:27
    INDEX 01 31:48:27
  TRACK 18 AUDIO
    INDEX 00 32:08:51
    INDEX 01 32:10:51
  TRACK 19 AUDIO
    INDEX 00 32:29:46
    INDEX 01 32:31:46
  TRACK 20 AUDIO
    INDEX 00 32:51:55
    INDEX 01 32:53:55
  TRACK 21 AUDIO
    INDEX 00 33:14:39
    INDEX 01 33:16:39
  TRACK 22 AUDIO
    INDEX 00 33:37:23
    INDEX 01 33:39:23
  TRACK 23 AUDIO
    INDEX 00 34:02:39
    INDEX 01 34:04:39
  TRACK 24 AUDIO
    INDEX 00 34:27:39
    INDEX 01 34:29:39
  TRACK 25 AUDIO
    INDEX 00 34:51:50
    INDEX 01 34:53:50
  TRACK 26 AUDIO
    INDEX 00 35:07:09
    INDEX 01 35:09:09
  TRACK 27 AUDIO
    INDEX 00 35:31:15
    INDEX 01 35:33:15
  TRACK 28 AUDIO
    INDEX 00 35:46:49
    INDEX 01 35:48:49
  TRACK 29 AUDIO
    INDEX 00 36:07:51
    INDEX 01 36:09:51
  TRACK 30 AUDIO
    INDEX 00 36:23:24
    INDEX 01 36:25:24
  TRACK 31 AUDIO
    INDEX 00 36:46:08
    INDEX 01 36:48:08
  TRACK 32 AUDIO
    INDEX 00 37:08:67
    INDEX 01 37:10:67
  TRACK 33 AUDIO
    INDEX 00 37:26:24
    INDEX 01 37:28:24
  TRACK 34 AUDIO
    INDEX 00 37:44:14
    INDEX 01 37:46:14
  TRACK 35 AUDIO
    INDEX 00 37:57:11
    INDEX 01 37:59:11
  TRACK 36 AUDIO
    INDEX 00 38:12:59
    INDEX 01 38:14:59
  TRACK 37 AUDIO
    INDEX 00 38:25:44
    INDEX 01 38:27:44
  TRACK 38 AUDIO
    INDEX 00 38:46:53
    INDEX 01 38:48:53
  TRACK 39 AUDIO
    INDEX 00 39:08:73
    INDEX 01 39:10:73
  TRACK 40 AUDIO
    INDEX 00 39:26:38
    INDEX 01 39:28:38
  TRACK 41 AUDIO
    INDEX 00 39:44:08
    INDEX 01 39:46:08
  TRACK 42 AUDIO
    INDEX 00 40:03:43
    INDEX 01 40:05:43
  TRACK 43 AUDIO
    INDEX 00 40:23:06
    INDEX 01 40:25:06
  TRACK 44 AUDIO
    INDEX 00 40:43:00
    INDEX 01 40:45:00
  TRACK 45 AUDIO
    INDEX 00 40:58:47
    INDEX 01 41:00:47
  TRACK 46 AUDIO
    INDEX 00 41:18:14
    INDEX 01 41:20:14
  TRACK 47 AUDIO
    INDEX 00 41:37:56
    INDEX 01 41:39:56
  TRACK 48 AUDIO
    INDEX 00 41:55:47
    INDEX 01 41:57:47
  TRACK 49 AUDIO
    INDEX 00 42:15:24
    INDEX 01 42:17:24
  TRACK 50 AUDIO
    INDEX 00 42:28:51
    INDEX 01 42:30:51
  TRACK 51 AUDIO
    INDEX 00 42:46:55
    INDEX 01 42:48:55
  TRACK 52 AUDIO
    INDEX 00 43:12:63
    INDEX 01 43:14:63
  TRACK 53 AUDIO
    INDEX 00 43:33:37
    INDEX 01 43:35:37
  TRACK 54 AUDIO
    INDEX 00 43:56:28
    INDEX 01 43:58:28
  TRACK 55 AUDIO
    INDEX 00 44:23:54
    INDEX 01 44:25:54
